<?xml version="1.0" encoding="UTF-8" standalone="no"?><!DOCTYPE svg PUBLIC "-//W3C//DTD SVG 1.1//EN" "http://www.w3.org/Graphics/SVG/1.1/DTD/svg11.dtd"><svg width="100%" height="100%" viewBox="0 0 99 10" version="1.1" xmlns="http://www.w3.org/2000/svg" xmlns:xlink="http://www.w3.org/1999/xlink" xml:space="preserve" xmlns:serif="http://www.serif.com/" style="fill-rule:evenodd;clip-rule:evenodd;stroke-linecap:round;stroke-linejoin:round;stroke-miterlimit:1.5;"><g id="Logo"><g><g><path d="M11.55,0.101c1.759,0.324 2.807,2.641 2.341,5.171c-0.466,2.529 -2.271,4.32 -4.029,3.996c-1.758,-0.323 -2.807,-2.64 -2.341,-5.17c0.466,-2.53 2.272,-4.321 4.029,-3.997Z" style="fill:url(#_Linear1);stroke:#72401c;stroke-width:0.13px;"/><path d="M11.65,0.449c0,0 0.26,2.257 -0.525,2.924c-2.525,2.149 -0.991,5.301 -0.991,5.301c0,0 -0.182,-1.889 0.968,-3.229c1.305,-1.521 1.252,-4.215 0.548,-4.996Z" style="fill:#fff;stroke:#fff7f7;stroke-width:0.13px;"/><path d="M13.841,4.194c0,0 -0.141,3.431 -2.912,4.668c0,0 2.154,-1.535 2.912,-4.668Z" style="fill:#fff;"/><path d="M13.841,4.194c0,0 -0.036,0.857 -0.417,1.87c-0.382,1.012 -1.11,2.179 -2.495,2.798c0,0 2.154,-1.535 2.912,-4.668Z" style="fill:#fff;"/></g></g><text x="-0.417px" y="9.031px" style="font-family:'AmericanTypewriter', 'American Typewriter', serif;font-size:12.642px;fill:#fff;stroke:#fff;stroke-width:0.13px;stroke-linecap:butt;stroke-miterlimit:2;">C  ﬀeeBeanCrew</text></g><g id="CoffeeBeanCrew-Logo-white"></g><defs><linearGradient id="_Linear1" x1="0" y1="0" x2="1" y2="0" gradientUnits="userSpaceOnUse" gradientTransform="matrix(6.37,1.17339,-1.17339,6.37,7.52119,4.09796)"><stop offset="0" style="stop-color:#72401c;stop-opacity:1"/><stop offset="0.6" style="stop-color:#764522;stop-opacity:1"/><stop offset="0.81" style="stop-color:#80512f;stop-opacity:1"/><stop offset="1" style="stop-color:#8a5d3c;stop-opacity:1"/></linearGradient></defs></svg>